#!OML:ASF I:\Actors\actors\Patient Classification 2\Patient 1\Session 1\actor1.ASF
:FULLY-SPECIFIED
:DEGREES
641
root -1.01093 18.5817 6.84338 -3.58605 -3.70559 -1.26069
lowerback 5.39858 -0.000554906 4.41177
upperback -2.13593 0.398619 1.36547
thorax -5.23468 0.0731427 -1.09579
lowerneck 1.78959 -18.9337 -15.0957
upperneck 13.8297 -26.6642 8.22235
head 7.06116 -13.3624 2.63937
rclavicle -1.49089e-015 7.55382e-015
rhumerus -59.6635 -18.0564 -77.8819
rradius 40.8566
rwrist -3.00618
rhand -28.5232 -48.5702
rfingers 7.12502
rthumb -1.89126 -78.5415
lclavicle -1.49089e-015 7.55382e-015
lhumerus -51.2848 10.9756 87.396
lradius 41.3798
lwrist 5.89312
lhand -22.8219 -18.9767
lfingers 7.12502
lthumb 3.61505 10.9724
rfemur 0 0 0
rtibia 0
rfoot 0 0
rtoes 0
lfemur 1.57427 4.04278 -11.4983
ltibia 25.9872
lfoot -20.1003 6.09224
ltoes -57.1966
642
root -1.00043 18.5816 6.84528 -3.59658 -3.90744 -1.35528
lowerback 5.32186 0.00314114 4.33397
upperback -2.13431 0.390004 1.3019
thorax -5.18931 0.0712146 -1.11728
lowerneck 1.96826 -18.893 -15.2122
upperneck 13.6196 -26.6589 8.50606
head 7.01886 -13.3596 2.75768
rclavicle -5.46658e-016 -1.31198e-014
rhumerus -59.6059 -18.1845 -77.9426
rradius 40.8443
rwrist -2.92952
rhand -28.4148 -48.6603
rfingers 7.12502
rthumb -1.7865 -78.6325
lclavicle -5.46658e-016 -1.31198e-014
lhumerus -51.2796 10.7447 87.4357
lradius 41.4106
lwrist 5.96538
lhand -22.8731 -19.0747
lfingers 7.12502
lthumb 3.56567 10.8752
rfemur 0 0 0
rtibia 0
rfoot 0 0
rtoes 0
lfemur 1.65567 4.02643 -11.4641
ltibia 25.9634
lfoot -20.1922 6.26876
ltoes -57.157
643
root -0.985307 18.5795 6.84657 -3.68017 -4.19423 -1.42217
lowerback 5.39358 0.0250323 4.13609
upperback -2.15685 0.406173 1.23856
thorax -5.25293 0.0832677 -1.07413
lowerneck 2.34937 -18.9031 -15.4751
upperneck 13.1834 -26.7473 8.91663
head 6.91944 -13.4114 2.94165
rclavicle 2.83268e-015 1.39149e-014
rhumerus -59.6121 -18.1288 -78.0631
rradius 40.8205
rwrist -2.91
rhand -28.2854 -48.6109
rfingers 7.12502
rthumb -1.66154 -78.5842
lclavicle 2.83268e-015 1.39149e-014
lhumerus -51.4076 10.3022 87.6016
lradius 41.5935
lwrist 6.33656
lhand -22.8901 -19.2566
lfingers 7.12502
lthumb 3.54922 10.6936
rfemur 0 0 0
rtibia 0
rfoot 0 0
rtoes 0
lfemur 1.85897 4.07312 -11.4693
ltibia 25.9127
lfoot -20.3264 6.46816
ltoes -57.0837
644
root -0.967776 18.5751 6.8468 -3.74389 -4.55823 -1.55901
lowerback 5.44163 0.037709 3.93072
upperback -2.14968 0.407129 1.18255
thorax -5.27278 0.0894023 -1.01766
lowerneck 2.65131 -19.0425 -15.6383
upperneck 12.5997 -26.9699 9.21711
head 6.77317 -13.5271 3.06361
rclavicle -1.28713e-014 -3.97569e-015
rhumerus -59.5617 -17.9541 -78.2835
rradius 40.8042
rwrist -2.84786
rhand -28.1312 -48.7645
rfingers 7.12502
rthumb -1.51261 -78.7389
lclavicle -1.28713e-014 -3.97569e-015
lhumerus -51.5293 9.99871 87.6731
lradius 41.8473
lwrist 6.67601
lhand -22.8692 -19.2693
lfingers 7.12502
lthumb 3.56946 10.6805
rfemur 0 0 0
rtibia 0
rfoot 0 0
rtoes 0
lfemur 2.08501 4.05966 -11.4298
ltibia 25.8332
lfoot -20.5906 6.80045
ltoes -57.0253
645
root -0.948956 18.5697 6.84538 -3.73691 -4.93514 -1.828
lowerback 5.4243 0.0265814 3.77818
upperback -2.10739 0.376171 1.13692
thorax -5.21994 0.0797572 -0.976628
lowerneck 3.17309 -19.3243 -15.7385
upperneck 11.3296 -27.3681 9.67553
head 6.40827 -13.7323 3.25191
rclavicle -2.11209e-015 1.63003e-014
rhumerus -59.3763 -17.7829 -78.5742
rradius 40.7171
rwrist -2.68173
rhand -28.0361 -48.8406
rfingers 7.12502
rthumb -1.42074 -78.8156
lclavicle -2.11209e-015 1.63003e-014
lhumerus -51.5506 9.95339 87.5737
lradius 42.0517
lwrist 6.77755
lhand -22.8427 -19.2203
lfingers 7.12502
lthumb 3.59496 10.7292
rfemur 0 0 0
rtibia 0
rfoot 0 0
rtoes 0
lfemur 2.262 3.9359 -11.2758
ltibia 25.7057
lfoot -21.0051 7.19927
ltoes -57.0835
646
root -0.925881 18.5626 6.84262 -3.71347 -5.32528 -2.17943
lowerback 5.46671 0.0131903 3.66079
upperback -2.02801 0.347816 1.11211
thorax -5.1622 0.0709674 -0.934143
lowerneck 4.05516 -19.8024 -15.7191
upperneck 8.89284 -27.9747 10.2899
head 5.65448 -14.0527 3.53961
rclavicle 9.36773e-015 8.54774e-015
rhumerus -59.085 -17.6559 -78.8256
rradius 40.5914
rwrist -2.43038
rhand -28.0049 -48.8327
rfingers 7.12502
rthumb -1.39064 -78.8079
lclavicle 9.36773e-015 8.54774e-015
lhumerus -51.5112 9.96003 87.4887
lradius 42.2387
lwrist 6.81271
lhand -22.9955 -19.3678
lfingers 7.12502
lthumb 3.4474 10.5841
rfemur 0 0 0
rtibia 0
rfoot 0 0
rtoes 0
lfemur 2.45311 3.77643 -11.0549
ltibia 25.5361
lfoot -21.5913 7.54428
ltoes -57.1838
647
root -0.898186 18.5525 6.83988 -3.66895 -5.74535 -2.51421
lowerback 5.53878 -0.0534627 3.45711
upperback -1.92902 0.244136 1.11746
thorax -5.10411 0.0282961 -0.804684
lowerneck 5.14802 -20.3696 -15.5975
upperneck 5.43134 -28.6164 10.9082
head 4.55488 -14.4034 3.90538
rclavicle -6.75868e-015 4.96962e-015
rhumerus -58.6968 -17.4384 -79.069
rradius 40.4537
rwrist -2.1377
rhand -27.9538 -48.9134
rfingers 7.12502
rthumb -1.34134 -78.8889
lclavicle -6.75868e-015 4.96962e-015
lhumerus -51.6266 10.0647 87.4171
lradius 42.6161
lwrist 7.03308
lhand -23.3219 -19.5518
lfingers 7.12502
lthumb 3.1322 10.4049
rfemur 0 0 0
rtibia 0
rfoot 0 0
rtoes 0
lfemur 2.66231 3.60583 -10.8942
ltibia 25.3348
lfoot -22.2617 7.92485
ltoes -57.1127
648
root -0.868323 18.5401 6.83618 -3.59434 -6.16175 -2.85315
lowerback 5.61671 -0.212589 3.15222
upperback -1.84815 0.011885 1.16239
thorax -5.07202 -0.0749154 -0.564541
lowerneck 6.03593 -20.8913 -15.5219
upperneck 1.83808 -29.152 11.3731
head 3.43552 -14.6928 4.25817
rclavicle -1.77912e-014 1.09332e-014
rhumerus -58.2803 -16.9859 -79.4001
rradius 40.3145
rwrist -1.97286
rhand -27.9019 -48.7889
rfingers 7.12502
rthumb -1.29113 -78.7647
lclavicle -1.77912e-014 1.09332e-014
lhumerus -51.9854 10.4322 87.2245
lradius 43.1013
lwrist 7.35973
lhand -23.6687 -19.754
lfingers 7.12502
lthumb 2.79729 10.2074
rfemur 0 0 0
rtibia 0
rfoot 0 0
rtoes 0
lfemur 2.85648 3.37885 -10.7769
ltibia 25.0996
lfoot -22.9816 8.45772
ltoes -56.8896
649
root -0.838089 18.5245 6.8279 -3.50496 -6.54258 -3.32324
lowerback 5.75449 -0.395763 2.98431
upperback -1.79298 -0.23897 1.20939
thorax -5.09965 -0.192783 -0.39624
lowerneck 6.5319 -21.3464 -15.6927
upperneck -1.17272 -29.6267 11.8047
head 2.5864 -14.9306 4.56666
rclavicle 5.41688e-015 -1.83876e-014
rhumerus -57.9026 -16.5143 -79.7926
rradius 40.2124
rwrist -2.04381
rhand -27.9316 -48.7109
rfingers 7.12502
rthumb -1.31988 -78.6866
lclavicle 5.41688e-015 -1.83876e-014
lhumerus -52.449 10.693 87.0236
lradius 43.5139
lwrist 7.78604
lhand -24.1096 -20.2705
lfingers 7.12502
lthumb 2.37149 9.69609
rfemur 0 0 0
rtibia 0
rfoot 0 0
rtoes 0
lfemur 3.03571 3.16577 -10.5091
ltibia 24.8492
lfoot -23.7217 8.94455
ltoes -56.5899
650
root -0.808315 18.5093 6.81971 -3.39139 -6.90968 -3.92589
lowerback 5.86901 -0.562909 2.97885
upperback -1.75499 -0.457209 1.24312
thorax -5.13117 -0.300051 -0.335267
lowerneck 6.76109 -21.7029 -16.2411
upperneck -3.51365 -30.0303 12.4524
head 2.06536 -15.1209 4.89379
rclavicle 9.68059e-015 1.18999e-015
rhumerus -57.458 -16.205 -80.1477
rradius 40.0105
rwrist -2.1206
rhand -27.843 -48.9336
rfingers 7.12502
rthumb -1.23426 -78.9098
lclavicle 9.68059e-015 1.18999e-015
lhumerus -52.9461 10.6412 86.9383
lradius 43.8627
lwrist 8.37327
lhand -24.5852 -20.8544
lfingers 7.12502
lthumb 1.91216 9.11673
rfemur 0 0 0
rtibia 0
rfoot 0 0
rtoes 0
lfemur 3.22524 2.80319 -10.1266
ltibia 24.5886
lfoot -24.5941 9.41528
ltoes -56.3725
651
root -0.777652 18.5016 6.81735 -3.1992 -7.28488 -4.56229
lowerback 5.82845 -0.718779 2.95558
upperback -1.78361 -0.666471 1.27795
thorax -5.14331 -0.402648 -0.264675
lowerneck 6.84284 -21.9326 -16.9398
upperneck -5.19289 -30.3026 13.0908
head 1.77555 -15.2407 5.18277
rclavicle -9.13788e-015 1.51076e-014
rhumerus -57.0343 -16.0765 -80.281
rradius 39.623
rwrist -1.81721
rhand -27.2273 -48.933
rfingers 7.12502
rthumb -0.639605 -78.9118
lclavicle -9.13788e-015 1.51076e-014
lhumerus -53.536 10.5939 86.8228
lradius 44.1051
lwrist 9.03137
lhand -24.8072 -21.1947
lfingers 7.12502
lthumb 1.69779 8.77831
rfemur 0 0 0
rtibia 0
rfoot 0 0
rtoes 0
lfemur 3.37242 1.96047 -9.84883
ltibia 24.311
lfoot -25.6507 10.2036
ltoes -56.2677
652
root -0.764902 18.497 6.82449 -3.07593 -7.35735 -5.07067
lowerback 5.60869 -0.934882 2.45181
upperback -1.81903 -0.998396 1.34651
thorax -5.05316 -0.549417 0.119289
lowerneck 6.90316 -22.005 -17.4106
upperneck -6.36278 -30.3747 13.403
head 1.53555 -15.2589 5.36985
rclavicle -1.64867e-014 4.96962e-015
rhumerus -56.7693 -16.0654 -80.1697
rradius 39.2102
rwrist -1.15105
rhand -26.2617 -48.5981
rfingers 7.12502
rthumb 0.293019 -78.5776
lclavicle -1.64867e-014 4.96962e-015
lhumerus -54.1379 10.6236 86.6862
lradius 44.2402
lwrist 9.99378
lhand -24.8518 -21.2917
lfingers 7.12502
lthumb 1.65474 8.68168
rfemur 0 0 0
rtibia 0
rfoot 0 0
rtoes 0
lfemur 3.57338 1.01691 -9.58697
ltibia 24.0042
lfoot -26.3682 10.7755
ltoes -56.086
653
root -0.737888 18.5004 6.82698 -2.94457 -7.77123 -5.4188
lowerback 5.4872 -1.00083 1.95119
upperback -1.88088 -1.12774 1.33105
thorax -5.04039 -0.598252 0.395064
lowerneck 6.87857 -21.9588 -17.5842
upperneck -7.16824 -30.2762 13.5226
head 1.32472 -15.1938 5.48007
rclavicle 6.01324e-015 -5.36719e-015
rhumerus -56.6233 -15.9263 -80.1639
rradius 39.0006
rwrist -0.581496
rhand -25.6221 -48.525
rfingers 7.12502
rthumb 0.910687 -78.5028
lclavicle 6.01324e-015 -5.36719e-015
lhumerus -54.5389 10.6269 86.6116
lradius 44.3024
lwrist 11.3967
lhand -24.9925 -21.0458
lfingers 7.12502
lthumb 1.5188 8.92851
rfemur 0 0 0
rtibia 0
rfoot 0 0
rtoes 0
lfemur 3.83602 0.0711344 -9.62772
ltibia 23.6731
lfoot -27.0939 11.6287
ltoes -55.6068
654
root -0.706146 18.5072 6.82917 -2.82683 -8.40328 -5.76536
lowerback 5.41239 -0.987555 1.52469
upperback -1.95682 -1.14473 1.28518
thorax -5.06907 -0.594279 0.587789
lowerneck 6.88207 -21.8209 -17.5441
upperneck -7.68203 -30.0623 13.5324
head 1.13661 -15.0781 5.54843
rclavicle -1.50828e-014 -2.38542e-015
rhumerus -56.6504 -15.4125 -80.4777
rradius 39.051
rwrist -0.317994
rhand -25.3987 -48.7581
rfingers 7.12502
rthumb 1.12646 -78.7349
lclavicle -1.50828e-014 -2.38542e-015
lhumerus -54.8587 10.5972 86.5684
lradius 44.3598
lwrist 13.1629
lhand -25.1371 -20.6305
lfingers 7.12502
lthumb 1.37919 9.34477
rfemur 0 0 0
rtibia 0
rfoot 0 0
rtoes 0
lfemur 4.17466 -0.810728 -9.72325
ltibia 23.3313
lfoot -27.8788 12.6202
ltoes -55.0997
655
root -0.679321 18.516 6.82479 -2.74027 -8.98653 -6.0576
lowerback 5.46684 -0.980603 1.02184
upperback -2.08892 -1.1729 1.22395
thorax -5.22869 -0.593244 0.812171
lowerneck 7.0331 -21.6341 -17.4478
upperneck -7.93717 -29.8192 13.4135
head 0.972843 -14.9535 5.58549
rclavicle -1.11319e-014 -8.34896e-015
rhumerus -56.8044 -14.8006 -80.852
rradius 39.1415
rwrist -0.0685628
rhand -25.3622 -48.8998
rfingers 7.12502
rthumb 1.16172 -78.8763
lclavicle -1.11319e-014 -8.34896e-015
lhumerus -55.3181 10.5582 86.5116
lradius 44.6106
lwrist 14.8439
lhand -25.1957 -20.1708
lfingers 7.12502
lthumb 1.3226 9.80486
rfemur 0 0 0
rtibia 0
rfoot 0 0
rtoes 0
lfemur 4.47512 -1.44605 -9.78076
ltibia 23.0233
lfoot -28.4732 13.4773
ltoes -54.7602
656
root -0.655652 18.525 6.80967 -2.71709 -9.46344 -6.37225
lowerback 5.78722 -0.968559 0.573165
upperback -2.27046 -1.18745 1.1651
thorax -5.59322 -0.585408 1.01397
lowerneck 7.109 -21.5447 -17.518
upperneck -7.71597 -29.7336 13.2112
head 0.992699 -14.9063 5.54814
rclavicle -4.47266e-015 -6.36111e-015
rhumerus -57.0229 -14.4937 -81.0088
rradius 39.142
rwrist 0.414946
rhand -25.4846 -48.8433
rfingers 7.12502
rthumb 1.0435 -78.8205
lclavicle -4.47266e-015 -6.36111e-015
lhumerus -55.8827 10.6666 86.316
lradius 45.0494
lwrist 15.755
lhand -25.143 -19.626
lfingers 7.12502
lthumb 1.37345 10.3493
rfemur 0 0 0
rtibia 0
rfoot 0 0
rtoes 0
lfemur 4.74812 -1.76204 -9.67167
ltibia 22.7722
lfoot -28.8274 14.0329
ltoes -54.5028
